<svg xmlns="http://www.w3.org/2000/svg" version="1.1" xmlns:xlink="http://www.w3.org/1999/xlink" width="512" height="512" x="0" y="0" viewBox="0 0 369.971 369" style="enable-background:new 0 0 512 512" xml:space="preserve" class=""><g><path d="M369.973 38.527c0-9.625-7.836-17.46-17.461-17.46h-94.258c-9.625 0-17.461 7.835-17.461 17.46v65.23c0 9.626 7.836 17.458 17.46 17.458h38.298v6.965h-20.992c-9.625 0-17.461 7.832-17.461 17.457v5.273h-25.7c1.79-13.156 1.739-26.367-.156-39.27v-.152c-2.867-20.226-19.61-35.636-39.933-36.812h-1.434c-.156 0-.309.05-.512.05-.105 0-.258.051-.36.051-.155.051-.308.051-.46.102-.102.05-.258.05-.36.101l-.46.157c-.102.05-.203.101-.309.101-.152.051-.305.102-.457.203a7.6 7.6 0 0 0-.309.157c-.152.05-.308.152-.41.254-.101.05-.203.152-.308.207-.153.101-.254.152-.356.254-.105.101-.207.152-.36.257-.05.051-.152.102-.206.153l-21.246 17.715-20.735-17.715c-.105-.051-.156-.153-.257-.203-.102-.106-.204-.157-.31-.258-.151-.102-.253-.203-.405-.258a1.027 1.027 0 0 1-.309-.203c-.152-.102-.309-.153-.46-.258l-.31-.152c-.152-.051-.304-.153-.46-.204-.102-.05-.204-.101-.305-.101a5.459 5.459 0 0 0-.512-.156c-.105-.051-.207-.051-.308-.102-.153-.05-.309-.05-.512-.101-.102 0-.258-.051-.36-.051-.152 0-.308-.051-.511-.051h-1.383c-20.379 1.125-37.172 16.586-39.988 36.813v.152c-1.946 12.953-1.996 26.113-.153 39.27h-20.12c-4.813 0-8.704 3.89-8.704 8.702s3.89 8.708 8.703 8.708h189.492a8.699 8.699 0 0 0 8.704-8.708V146.2c0-.203.05-.46.05-.664h58.985c.203 0 .46.05.664.05l-.203 157.747c0 4.813 3.89 8.707 8.703 8.707s8.703-3.894 8.703-8.707l.203-157.695c0-9.625-7.832-17.457-17.457-17.457h-21.2v-6.965H352.513c9.625 0 17.46-7.832 17.46-17.457zm-255.078 75.57v-.1c1.484-11.009 9.98-19.661 20.683-21.556l23.5 20.07c.05.052.152.102.258.204.101.105.203.156.305.207.156.101.308.203.46.305.102.05.157.105.258.156.254.152.512.254.766.41.05 0 .105.05.156.05.203.102.461.204.664.255.102.05.153.05.258.05.203.051.406.106.613.157.102 0 .153.05.254.05.207.051.41.051.617.102.051 0 .153 0 .204.05.308.052.562.052.87.052.31 0 .563 0 .872-.051.05 0 .152 0 .203-.051.207-.05.41-.05.617-.102.102 0 .152-.05.254-.05l.613-.157c.106 0 .157-.05.258-.05.203-.102.461-.153.664-.254.051 0 .102-.051.156-.051.254-.106.512-.258.766-.41.102-.051.156-.106.258-.156.152-.102.305-.204.46-.305.102-.05.204-.156.305-.207.051-.05.157-.102.208-.153l23.91-20.12c10.75 1.894 19.25 10.546 20.734 21.554V114.098c1.793 12.082 1.742 24.472-.203 36.812h-9.883l.719-26.164c.101-3.941-3.024-7.27-6.965-7.371-3.941-.102-7.27 3.02-7.371 6.965l-.719 26.52H139.06l-.715-26.52c-.106-3.945-3.38-7.067-7.375-6.965-3.942.102-7.067 3.379-6.961 7.371l.715 26.164h-9.676c-1.895-12.34-1.996-24.73-.152-36.812zM352.41 103.81h-93.492c-.203 0-.461-.051-.664-.051V39.14c0-.203.05-.461.05-.664h93.594c.204 0 .461.05.664.05v64.614c0 .207-.05.46-.05.668h-.102zM31.54 100.07c17.405 0 31.538-14.132 31.538-31.539 0-17.41-14.133-31.539-31.539-31.539S0 51.122 0 68.532c0 17.355 14.133 31.538 31.54 31.538zm0-45.722c7.78 0 14.132 6.347 14.132 14.132 0 7.782-6.352 14.13-14.133 14.13s-14.133-6.348-14.133-14.13c0-7.785 6.352-14.132 14.133-14.132zm0 0" fill="#D97706" opacity="1" data-original="#000000" class=""></path><path d="M91.547 187.16H59.289v-52.172c.152-9.883-5.016-19.148-13.465-24.218-8.55-5.118-19.25-5.223-27.902-.305-8.656 4.914-14.082 14.18-14.082 24.113l.203 63.23c.055 20.587 16.691 37.329 37.172 37.329H71.32l.207 54.32v.05c.051 12.34 10.957 22.735 23.86 22.735 6.398 0 12.695-2.664 17.254-7.27 4.25-4.3 6.605-9.78 6.554-15.515v-.05l.051-74.598c.05-15.207-12.39-27.649-27.7-27.649zm8.754 105.625c-1.332 1.332-3.176 2.102-4.914 2.102-3.328 0-6.453-2.614-6.453-5.43l-.254-63.027v-.867c0-.157-.051-.31-.051-.461 0-.157-.055-.258-.055-.41-.05-.157-.05-.31-.101-.462-.051-.101-.051-.257-.102-.359l-.152-.46c-.051-.102-.106-.255-.156-.36-.051-.153-.153-.305-.204-.461l-.152-.305c-.105-.156-.156-.308-.258-.41l-.152-.309c-.102-.152-.207-.253-.309-.41a.892.892 0 0 0-.203-.254c-.105-.156-.258-.257-.36-.41-.05-.05-.152-.152-.202-.258-.106-.101-.258-.254-.41-.355-.106-.05-.157-.156-.258-.207-.153-.102-.309-.203-.41-.305-.102-.054-.153-.105-.254-.207-.157-.101-.309-.203-.461-.254-.102-.05-.157-.105-.258-.156-.152-.102-.305-.152-.512-.254-.101-.05-.152-.101-.254-.156-.156-.05-.36-.152-.566-.203-.102-.051-.153-.051-.254-.102-.207-.05-.41-.101-.664-.156-.055 0-.106-.05-.207-.05a3.959 3.959 0 0 0-.77-.102h-.101c-.305-.051-.563-.051-.871-.051H41.215c-10.906 0-19.762-8.961-19.762-19.969l-.207-63.18c0-3.687 2-7.168 5.223-8.96a10.335 10.335 0 0 1 10.394.101 10.305 10.305 0 0 1 5.02 9.113v61.082a8.699 8.699 0 0 0 8.703 8.707h40.96c5.684 0 10.34 4.606 10.34 10.34l-.05 74.598V289.613c0 1.383-.973 2.61-1.535 3.172zM164.863 66.43c18.176 0 32.973-14.797 32.973-32.973S183.039.484 164.863.484s-32.972 14.797-32.972 32.973 14.797 32.973 32.972 32.973zm0-48.535c8.602 0 15.567 6.96 15.567 15.562s-6.965 15.566-15.567 15.566c-8.601 0-15.562-6.964-15.562-15.566s6.96-15.562 15.562-15.562zM168.191 129.563h3.739v3.734c0 1.844 1.484 3.328 3.328 3.328s3.328-1.484 3.328-3.328v-3.734h3.738a3.323 3.323 0 0 0 3.328-3.329 3.32 3.32 0 0 0-3.328-3.328h-3.738v-3.738c0-1.844-1.484-3.328-3.328-3.328s-3.328 1.484-3.328 3.328v3.738h-3.739a3.32 3.32 0 0 0-3.328 3.328 3.323 3.323 0 0 0 3.328 3.329zm0 0" fill="#D97706" opacity="1" data-original="#000000" class=""></path></g></svg>