<!DOCTYPE svg PUBLIC "-//W3C//DTD SVG 1.1//EN" "http://www.w3.org/Graphics/SVG/1.1/DTD/svg11.dtd">
<!-- Uploaded to: SVG Repo, www.svgrepo.com, Transformed by: SVG Repo Mixer Tools -->
<svg fill="#6EA130" version="1.1" id="Layer_1" xmlns="http://www.w3.org/2000/svg" xmlns:xlink="http://www.w3.org/1999/xlink" viewBox="0 0 496.008 496.008" xml:space="preserve" width="800px" height="800px">
<g id="SVGRepo_bgCarrier" stroke-width="0"/>
<g id="SVGRepo_tracerCarrier" stroke-linecap="round" stroke-linejoin="round"/>
<g id="SVGRepo_iconCarrier"> <g> <g> <g> <path d="M464.004,112c0-22.056-17.944-40-40-40c-22.056,0-40,17.944-40,40c0,22.056,17.944,40,40,40 C446.06,152,464.004,134.056,464.004,112z M424.004,136c-13.232,0-24-10.768-24-24s10.768-24,24-24s24,10.768,24,24 S437.236,136,424.004,136z"/> <path d="M496.004,192c0-22.056-17.944-40-40-40h-32h-32c-22.056,0-40,17.944-40,40v104h17.44l-11.2,56h25.76v80h80v-80h25.76 l-11.2-56h17.44V192z M416.004,416h-16v-16h16V416z M416.004,384h-16v-32h16V384z M448.004,416h-16v-16h16V416z M448.004,384h-16 v-32h16V384z M480.004,280h-4.64l-11.36-56.792V192h-16v32l22.24,112h-14.24h-8h-48h-8h-14.24l22.088-110.432L400.004,192h-16 v31.208L372.644,280h-4.64v-88c0-13.232,10.768-24,24-24h64c13.232,0,24,10.768,24,24V280z"/> <path d="M112.004,112c0-22.056-17.944-40-40-40c-22.056,0-40,17.944-40,40c0,22.056,17.944,40,40,40 C94.06,152,112.004,134.056,112.004,112z M72.004,136c-13.232,0-24-10.768-24-24s10.768-24,24-24s24,10.768,24,24 S85.236,136,72.004,136z"/> <path d="M144.004,192c0-22.056-17.944-40-40-40h-32h-32c-22.056,0-40,17.944-40,40v104h32v136h80V296h32V192z M64.004,416h-16 v-16h16V416z M96.004,416h-16v-16h16V416z M96.004,280v8v96h-16v-80h-16v80h-16v-96v-8v-16h48V280z M128.004,280h-16v-88h-16v56 h-48v-56h-16v88h-16v-88c0-13.232,10.768-24,24-24h64c13.232,0,24,10.768,24,24V280z"/> <path d="M336.004,232c0-48.52-39.48-88-88-88c-48.52,0-88,39.48-88,88c0,26.496,11.608,50.968,32,67.776V304h-16v16h16v40h112 v-40h16v-16h-16v-4.224C324.396,282.968,336.004,258.496,336.004,232z M288.004,344h-80v-24h80V344z M240.004,232 c0-4.416,3.584-8,8-8s8,3.584,8,8s-3.584,8-8,8C243.588,240,240.004,236.416,240.004,232z M291.188,289.504l-3.184,2.392V304h-32 v-49.472c9.288-3.312,16-12.112,16-22.528c0-13.232-10.768-24-24-24s-24,10.768-24,24c0,10.416,6.712,19.216,16,22.528V304h-32 v-12.104l-3.184-2.4c-18.312-13.768-28.816-34.728-28.816-57.496c0-39.704,32.296-72,72-72s72,32.296,72,72 C320.004,254.768,309.5,275.728,291.188,289.504z"/> <path d="M184.004,85.24V88h13.448c5.528,11.688,14.864,21.024,26.552,26.552V128h48v-13.448 c11.688-5.528,21.024-14.864,26.552-26.552h13.448v-2.752c18.592,7.84,35.904,18.952,50.536,32.608l10.92-11.704 c-17.624-16.448-38.784-29.512-61.456-38.128V40h-13.448c-5.528-11.688-14.864-21.024-26.552-26.552V0h-48v13.448 C212.316,18.976,202.98,28.312,197.452,40h-13.448v28.024c-22.672,8.616-43.832,21.68-61.464,38.12l10.928,11.704 C148.1,104.192,165.42,93.08,184.004,85.24z M200.004,56h8.448l1.88-5.328c4.048-11.432,12.912-20.296,24.344-24.344l5.328-1.88 V16h16v8.448l5.328,1.88c11.432,4.048,20.296,12.912,24.344,24.344l1.88,5.328h8.448v16h-8.448l-1.88,5.328 c-4.048,11.432-12.912,20.296-24.344,24.344l-5.328,1.88V112h-16v-8.448l-5.328-1.88c-11.432-4.048-20.296-12.912-24.344-24.344 L208.452,72h-8.448V56z"/> <path d="M362.548,378.152c-17.016,15.872-37.2,28.192-58.728,35.984C295.052,391.84,273.372,376,248.004,376 c-25.368,0-47.048,15.84-55.816,38.136c-21.536-7.792-41.712-20.112-58.728-35.984l-10.904,11.704 c19,17.728,41.64,31.376,65.784,39.872c-0.216,2.064-0.336,4.16-0.336,6.28c0,33.088,26.912,60,60,60s60-26.912,60-60 c0-2.12-0.12-4.216-0.336-6.28c24.144-8.496,46.792-22.144,65.784-39.872L362.548,378.152z M248.004,480 c-24.256,0-44-19.744-44-44c0-24.256,19.744-44,44-44s44,19.744,44,44C292.004,460.256,272.26,480,248.004,480z"/> <path d="M248.004,88c13.232,0,24-10.768,24-24s-10.768-24-24-24s-24,10.768-24,24S234.772,88,248.004,88z M248.004,56 c4.416,0,8,3.584,8,8s-3.584,8-8,8c-4.416,0-8-3.584-8-8S243.588,56,248.004,56z"/> <polygon points="256.004,408 240.004,408 240.004,443.312 258.348,461.656 269.66,450.344 256.004,436.688 "/> <rect x="328.004" width="16" height="16"/> <rect x="360.004" width="16" height="16"/> <rect x="392.004" width="16" height="16"/> <rect x="96.004" y="480" width="16" height="16"/> <rect x="128.004" y="480" width="16" height="16"/> <rect x="160.004" y="480" width="16" height="16"/> </g> </g> </g> </g>
</svg>