<!DOCTYPE svg PUBLIC "-//W3C//DTD SVG 1.1//EN" "http://www.w3.org/Graphics/SVG/1.1/DTD/svg11.dtd">
<!-- Uploaded to: SVG Repo, www.svgrepo.com, Transformed by: SVG Repo Mixer Tools -->
<svg width="800px" height="800px" viewBox="0 0 24 24" fill="none" xmlns="http://www.w3.org/2000/svg" stroke="#00000" transform="rotate(0)">
<g id="SVGRepo_bgCarrier" stroke-width="0"/>
<g id="SVGRepo_tracerCarrier" stroke-linecap="round" stroke-linejoin="round" stroke="#CCCCCC" stroke-width="0.24000000000000005"/>
<g id="SVGRepo_iconCarrier"> <path d="M14.2172 3.49965C12.7962 2.83345 11.2037 2.83345 9.78272 3.49965L3.0916 6.63659C2.0156 7.14105 1.73507 8.56352 2.25 9.54666L2.25 14.5C2.25 14.9142 2.58579 15.25 3 15.25C3.41421 15.25 3.75 14.9142 3.75 14.5V10.672L9.78281 13.5003C11.2038 14.1665 12.7963 14.1665 14.2173 13.5003L20.9084 10.3634C22.3639 9.68105 22.3639 7.31899 20.9084 6.63664L14.2172 3.49965Z" fill="#ffff"/> <path d="M5 12.9147V16.6254C5 17.6334 5.5035 18.5772 6.38533 19.0656C7.8537 19.8787 10.204 21 12 21C13.796 21 16.1463 19.8787 17.6147 19.0656C18.4965 18.5772 19 17.6334 19 16.6254V12.9148L14.854 14.8585C13.0296 15.7138 10.9705 15.7138 9.14607 14.8585L5 12.9147Z" fill="#ffff"/> </g>
</svg>